{
	"asset":{
		"generator":"Khronos glTF Blender I/O v3.6.27",
		"version":"2.0"
	},
	"extensionsUsed":[
		"KHR_materials_specular",
		"KHR_materials_ior"
	],
	"scene":0,
	"scenes":[
		{
			"name":"Scene",
			"nodes":[
				0
			]
		}
	],
	"nodes":[
		{
			"mesh":0,
			"name":"FBHead"
		}
	],
	"materials":[
		{
			"doubleSided":true,
			"extensions":{
				"KHR_materials_specular":{
					"specularColorFactor":[
						0,
						0,
						0
					]
				},
				"KHR_materials_ior":{
					"ior":1.4500000476837158
				}
			},
			"name":"FBHead_preview_mat",
			"pbrMetallicRoughness":{
				"baseColorTexture":{
					"index":0
				},
				"metallicFactor":0,
				"roughnessFactor":0.5
			}
		}
	],
	"meshes":[
		{
			"name":"FBHead_mesh",
			"primitives":[
				{
					"attributes":{
						"POSITION":0,
						"NORMAL":1,
						"TEXCOORD_0":2
					},
					"indices":3,
					"material":0
				}
			]
		}
	],
	"textures":[
		{
			"sampler":0,
			"source":0
		}
	],
	"images":[
		{
			"mimeType":"image/png",
			"name":"FBHead_baked_tex",
			"uri":"FBHead_baked_tex.png"
		}
	],
	"accessors":[
		{
			"bufferView":0,
			"componentType":5126,
			"count":18097,
			"max":[
				0.7962198853492737,
				1.0440841913223267,
				1.1270530223846436
			],
			"min":[
				-0.7951723337173462,
				-1.465660572052002,
				-0.5097087621688843
			],
			"type":"VEC3"
		},
		{
			"bufferView":1,
			"componentType":5126,
			"count":18097,
			"type":"VEC3"
		},
		{
			"bufferView":2,
			"componentType":5126,
			"count":18097,
			"type":"VEC2"
		},
		{
			"bufferView":3,
			"componentType":5123,
			"count":107862,
			"type":"SCALAR"
		}
	],
	"bufferViews":[
		{
			"buffer":0,
			"byteLength":217164,
			"byteOffset":0,
			"target":34962
		},
		{
			"buffer":0,
			"byteLength":217164,
			"byteOffset":217164,
			"target":34962
		},
		{
			"buffer":0,
			"byteLength":144776,
			"byteOffset":434328,
			"target":34962
		},
		{
			"buffer":0,
			"byteLength":215724,
			"byteOffset":579104,
			"target":34963
		}
	],
	"samplers":[
		{
			"magFilter":9729,
			"minFilter":9987
		}
	],
	"buffers":[
		{
			"byteLength":794828,
			"uri":"aaronmodel.bin"
		}
	]
}
