{"accessors" : [{"bufferView" : 0, "byteOffset" : 0, "componentType" : 5123, "count" : 618, "type" : "SCALAR", "max" : [495], "min" : [0]}, {"bufferView" : 1, "byteOffset" : 0, "componentType" : 5126, "count" : 496, "type" : "VEC3", "max" : [0.04988940805196762, 1.7416270971298218, 0.11022278666496277], "min" : [0.01220643799751997, 1.704001784324646, 0.091493621468544], "name" : "POSITION"}, {"bufferView" : 1, "byteOffset" : 12, "componentType" : 5126, "count" : 496, "type" : "VEC2", "max" : [0.9646214246749878, 0.9818061590194702], "min" : [0.019903719425201416, 0.020990610122680664], "name" : "TEXCOORD_0"}, {"bufferView" : 1, "byteOffset" : 20, "componentType" : 5126, "count" : 496, "type" : "VEC3", "max" : [0.9406006932258606, 0.9512309432029724, 1.0000042915344238], "min" : [-0.9471116065979004, -0.9485120177268982, -1.0000042915344238], "name" : "NORMAL"}, {"bufferView" : 0, "byteOffset" : 1236, "componentType" : 5123, "count" : 618, "type" : "SCALAR", "max" : [500], "min" : [0]}, {"bufferView" : 2, "byteOffset" : 0, "componentType" : 5126, "count" : 501, "type" : "VEC3", "max" : [-0.01246913243085146, 1.7416653633117676, 0.11022281646728516], "min" : [-0.050002314150333405, 1.7039625644683838, 0.09149366617202759], "name" : "POSITION"}, {"bufferView" : 2, "byteOffset" : 12, "componentType" : 5126, "count" : 501, "type" : "VEC2", "max" : [0.9585750699043274, 0.966354489326477], "min" : [0.006885886192321777, 0.022762417793273926], "name" : "TEXCOORD_0"}, {"bufferView" : 2, "byteOffset" : 20, "componentType" : 5126, "count" : 501, "type" : "VEC3", "max" : [0.9310468435287476, 0.9478710293769836, 1.0000042915344238], "min" : [-0.9491647481918335, -0.9364743232727051, -1.0000042915344238], "name" : "NORMAL"}, {"bufferView" : 0, "byteOffset" : 2472, "componentType" : 5123, "count" : 12282, "type" : "SCALAR", "max" : [9739], "min" : [0]}, {"bufferView" : 3, "byteOffset" : 0, "componentType" : 5126, "count" : 9740, "type" : "VEC3", "max" : [0.09579431265592575, 1.8330844640731812, 0.13879799842834473], "min" : [-0.09610731154680252, 1.5206061601638794, -0.08657769858837128], "name" : "POSITION"}, {"bufferView" : 3, "byteOffset" : 12, "componentType" : 5126, "count" : 9740, "type" : "VEC2", "max" : [0.9943000078201294, 0.9807000160217285], "min" : [0.004999999888241291, 0.004350006580352783], "name" : "TEXCOORD_0"}, {"bufferView" : 3, "byteOffset" : 20, "componentType" : 5126, "count" : 9740, "type" : "VEC3", "max" : [0.9992218613624573, 0.9998693466186523, 0.9999847412109375], "min" : [-0.9992175102233887, -0.9999938011169434, -0.9999959468841553], "name" : "NORMAL"}, {"bufferView" : 0, "byteOffset" : 27036, "componentType" : 5123, "count" : 300, "type" : "SCALAR", "max" : [241], "min" : [0]}, {"bufferView" : 4, "byteOffset" : 0, "componentType" : 5126, "count" : 242, "type" : "VEC3", "max" : [0.028323356062173843, 1.6754671335220337, 0.11858323216438293], "min" : [-0.028323356062173843, 1.6377557516098022, 0.050584811717271805], "name" : "POSITION"}, {"bufferView" : 4, "byteOffset" : 12, "componentType" : 5126, "count" : 242, "type" : "VEC2", "max" : [0.9808249473571777, 0.983213484287262], "min" : [0.051069796085357666, 0.02829587459564209], "name" : "TEXCOORD_0"}, {"bufferView" : 4, "byteOffset" : 20, "componentType" : 5126, "count" : 242, "type" : "VEC3", "max" : [0.9971882700920105, 0.8775893449783325, 0.9974808692932129], "min" : [-0.9971882700920105, -0.9858413934707642, -0.7650182843208313], "name" : "NORMAL"}, {"bufferView" : 0, "byteOffset" : 27636, "componentType" : 5123, "count" : 4734, "type" : "SCALAR", "max" : [3797], "min" : [0]}, {"bufferView" : 5, "byteOffset" : 0, "componentType" : 5126, "count" : 3798, "type" : "VEC3", "max" : [0.5314633250236511, 1.1030893325805664, 0.1485920399427414], "min" : [-0.5314706563949585, 0.08581455051898956, -0.09418521076440811], "name" : "POSITION"}, {"bufferView" : 5, "byteOffset" : 12, "componentType" : 5126, "count" : 3798, "type" : "VEC3", "max" : [0.999811053276062, 0.8755018711090088, 0.9933783411979675], "min" : [-0.9997895956039429, -0.9900078177452087, -0.9917576909065247], "name" : "NORMAL"}, {"bufferView" : 5, "byteOffset" : 24, "componentType" : 5126, "count" : 3798, "type" : "VEC2", "max" : [0.9857610464096069, 0.9892195463180542], "min" : [0.018731044605374336, 0.07936090230941772], "name" : "TEXCOORD_0"}, {"bufferView" : 0, "byteOffset" : 37104, "componentType" : 5123, "count" : 6021, "type" : "SCALAR", "max" : [4802], "min" : [0]}, {"bufferView" : 6, "byteOffset" : 0, "componentType" : 5126, "count" : 4803, "type" : "VEC3", "max" : [0.2013683319091797, 1.0861890316009521, 0.1314895749092102], "min" : [-0.20136836171150208, 0.1660120189189911, -0.11851364374160767], "name" : "POSITION"}, {"bufferView" : 6, "byteOffset" : 12, "componentType" : 5126, "count" : 4803, "type" : "VEC3", "max" : [0.9999840259552002, 0.9979947805404663, 0.9980707168579102], "min" : [-0.999984085559845, -0.999957263469696, -0.9997368454933167], "name" : "NORMAL"}, {"bufferView" : 6, "byteOffset" : 24, "componentType" : 5126, "count" : 4803, "type" : "VEC2", "max" : [1.913161039352417, 0.9994999766349792], "min" : [0.0005000000237487257, 0.0004999637603759766], "name" : "TEXCOORD_0"}, {"bufferView" : 0, "byteOffset" : 49148, "componentType" : 5123, "count" : 4464, "type" : "SCALAR", "max" : [3627], "min" : [0]}, {"bufferView" : 7, "byteOffset" : 0, "componentType" : 5126, "count" : 3628, "type" : "VEC3", "max" : [0.22592131793498993, 0.14357280731201172, 0.1933862864971161], "min" : [-0.22592131793498993, 0.0002632989489939064, -0.11213701963424683], "name" : "POSITION"}, {"bufferView" : 7, "byteOffset" : 12, "componentType" : 5126, "count" : 3628, "type" : "VEC3", "max" : [0.9996623396873474, 0.9982433319091797, 0.9980915188789368], "min" : [-0.9996623396873474, -1.0000044107437134, -0.9999400973320007], "name" : "NORMAL"}, {"bufferView" : 7, "byteOffset" : 24, "componentType" : 5126, "count" : 3628, "type" : "VEC2", "max" : [0.9908556938171387, 0.9881574511528015], "min" : [0.007704734802246094, 0.004952907562255859], "name" : "TEXCOORD_0"}, {"bufferView" : 0, "byteOffset" : 58076, "componentType" : 5123, "count" : 14211, "type" : "SCALAR", "max" : [11346], "min" : [0]}, {"bufferView" : 8, "byteOffset" : 0, "componentType" : 5126, "count" : 11347, "type" : "VEC3", "max" : [0.47128450870513916, 1.6153899431228638, 0.15080289542675018], "min" : [-0.4710407257080078, 1.030153512954712, -0.1293509155511856], "name" : "POSITION"}, {"bufferView" : 8, "byteOffset" : 12, "componentType" : 5126, "count" : 11347, "type" : "VEC3", "max" : [0.9993754029273987, 1.0000044107437134, 0.9999857544898987], "min" : [-0.9993053674697876, -1.0000044107437134, -0.9994266629219055], "name" : "NORMAL"}, {"bufferView" : 8, "byteOffset" : 24, "componentType" : 5126, "count" : 11347, "type" : "VEC2", "max" : [0.978907585144043, 0.9994999766349792], "min" : [0.0005000000237487257, 0.0027712583541870117], "name" : "TEXCOORD_0"}, {"bufferView" : 0, "byteOffset" : 86500, "componentType" : 5123, "count" : 5223, "type" : "SCALAR", "max" : [4300], "min" : [0]}, {"bufferView" : 9, "byteOffset" : 0, "componentType" : 5126, "count" : 4301, "type" : "VEC3", "max" : [0.09021933376789093, 1.8598031997680664, 0.12469752877950668], "min" : [-0.08637183159589767, 1.6647365093231201, -0.08217179775238037], "name" : "POSITION"}, {"bufferView" : 9, "byteOffset" : 12, "componentType" : 5126, "count" : 4301, "type" : "VEC3", "max" : [0.999914288520813, 0.9986743927001953, 0.997683048248291], "min" : [-0.9979454278945923, -0.985119104385376, -0.9990914463996887], "name" : "NORMAL"}, {"bufferView" : 9, "byteOffset" : 24, "componentType" : 5126, "count" : 4301, "type" : "VEC2", "max" : [0.9903475046157837, 0.9919896125793457], "min" : [0.0005001280223950744, 0.034979045391082764], "name" : "TEXCOORD_0"}], "asset" : {"generator" : "Aspose.3D 23.9.0", "version" : "2.0"}, "buffers" : [{"uri" : "data:application/octet-stream;base64,", "byteLength" : 1648060}], "bufferViews" : [{"buffer" : 0, "byteOffset" : 0, "byteLength" : 96948, "target" : 34963}, {"buffer" : 0, "byteOffset" : 96952, "byteLength" : 19776, "byteStride" : 32, "target" : 34962}, {"buffer" : 0, "byteOffset" : 116732, "byteLength" : 19776, "byteStride" : 32, "target" : 34962}, {"buffer" : 0, "byteOffset" : 136512, "byteLength" : 393024, "byteStride" : 32, "target" : 34962}, {"buffer" : 0, "byteOffset" : 529540, "byteLength" : 9600, "byteStride" : 32, "target" : 34962}, {"buffer" : 0, "byteOffset" : 539144, "byteLength" : 151488, "byteStride" : 32, "target" : 34962}, {"buffer" : 0, "byteOffset" : 690636, "byteLength" : 192672, "byteStride" : 32, "target" : 34962}, {"buffer" : 0, "byteOffset" : 883312, "byteLength" : 142848, "byteStride" : 32, "target" : 34962}, {"buffer" : 0, "byteOffset" : 1026164, "byteLength" : 454752, "byteStride" : 32, "target" : 34962}, {"buffer" : 0, "byteOffset" : 1480920, "byteLength" : 167136, "byteStride" : 32, "target" : 34962}], "images" : [{"uri" : "data:image/jpeg;base64,"}, {"uri" : "data:image/jpeg;base64,"}, {"uri" : "data:image/jpeg;base64,"}, {"uri" : "data:image/jpeg;base64,"}, {"uri" : "data:image/jpeg;base64,"}, {"uri" : "data:image/jpeg;base64,"}, {"uri" : "data:image/jpeg;base64,"}, {"uri" : "data:image/jpeg;base64,"}, {"uri" : "data:image/jpeg;base64,"}, {"uri" : "data:image/jpeg;base64,"}, {"uri" : "data:image/jpeg;base64,"}, {"uri" : "data:image/jpeg;base64,"}, {"uri" : "data:image/jpeg;base64,"}, {"uri" : "data:image/jpeg;base64,"}, {"uri" : "data:image/jpeg;base64,"}], "materials" : [{"name" : "Wolf3D_Eye", "pbrMetallicRoughness" : {"baseColorFactor" : [1, 1, 1, 1], "baseColorTexture" : {"index" : 0, "texCoord" : 0}, "metallicFactor" : 0, "roughnessFactor" : 1}, "emissiveFactor" : [0, 0, 0], "alphaMode" : "OPAQUE", "doubleSided" : false}, {"name" : "Wolf3D_Eye", "pbrMetallicRoughness" : {"baseColorFactor" : [1, 1, 1, 1], "baseColorTexture" : {"index" : 0, "texCoord" : 0}, "metallicFactor" : 0, "roughnessFactor" : 1}, "emissiveFactor" : [0, 0, 0], "alphaMode" : "OPAQUE", "doubleSided" : false}, {"name" : "Wolf3D_Skin", "pbrMetallicRoughness" : {"baseColorFactor" : [1, 1, 1, 1], "baseColorTexture" : {"index" : 1, "texCoord" : 0}, "metallicFactor" : 0, "roughnessFactor" : 0.699999988079071}, "emissiveFactor" : [0, 0, 0], "alphaMode" : "OPAQUE", "doubleSided" : false}, {"name" : "Wolf3D_Teeth", "pbrMetallicRoughness" : {"baseColorFactor" : [1, 1, 1, 1], "baseColorTexture" : {"index" : 2, "texCoord" : 0}, "metallicFactor" : 0, "roughnessFactor" : 1}, "emissiveFactor" : [0, 0, 0], "alphaMode" : "OPAQUE", "doubleSided" : true}, {"name" : "Wolf3D_Body", "pbrMetallicRoughness" : {"baseColorFactor" : [1, 1, 1, 1], "baseColorTexture" : {"index" : 4, "texCoord" : 0}, "metallicFactor" : 0, "roughnessFactor" : 0.5527864098548889}, "normalTexture" : {"index" : 3, "texCoord" : 0, "scale" : 1}, "emissiveFactor" : [0, 0, 0], "alphaMode" : "OPAQUE", "doubleSided" : false}, {"name" : "Wolf3D_Outfit_Bottom", "pbrMetallicRoughness" : {"baseColorFactor" : [1, 1, 1, 1], "baseColorTexture" : {"index" : 6, "texCoord" : 0}, "metallicFactor" : 0, "roughnessFactor" : 0.5527864098548889}, "normalTexture" : {"index" : 5, "texCoord" : 0, "scale" : 1}, "emissiveFactor" : [0, 0, 0], "alphaMode" : "OPAQUE", "doubleSided" : false}, {"name" : "Wolf3D_Outfit_Footwear", "pbrMetallicRoughness" : {"baseColorFactor" : [1, 1, 1, 1], "baseColorTexture" : {"index" : 8, "texCoord" : 0}, "metallicFactor" : 0.11363636702299118, "roughnessFactor" : 1, "metallicRoughnessTexture" : {"index" : 9, "texCoord" : 0}}, "normalTexture" : {"index" : 7, "texCoord" : 0, "scale" : 1}, "emissiveFactor" : [0, 0, 0], "alphaMode" : "OPAQUE", "doubleSided" : false}, {"name" : "Wolf3D_Outfit_Top", "pbrMetallicRoughness" : {"baseColorFactor" : [1, 1, 1, 1], "baseColorTexture" : {"index" : 11, "texCoord" : 0}, "metallicFactor" : 0, "roughnessFactor" : 1, "metallicRoughnessTexture" : {"index" : 12, "texCoord" : 0}}, "normalTexture" : {"index" : 10, "texCoord" : 0, "scale" : 1}, "emissiveFactor" : [0, 0, 0], "alphaMode" : "OPAQUE", "doubleSided" : false}, {"name" : "Wolf3D_Hair", "pbrMetallicRoughness" : {"baseColorFactor" : [1, 1, 1, 1], "baseColorTexture" : {"index" : 14, "texCoord" : 0}, "metallicFactor" : 0, "roughnessFactor" : 0.7409090995788574}, "normalTexture" : {"index" : 13, "texCoord" : 0, "scale" : 1}, "emissiveFactor" : [0, 0, 0], "alphaMode" : "OPAQUE", "doubleSided" : true}], "meshes" : [{"primitives" : [{"attributes" : {"POSITION" : 1, "TEXCOORD_0" : 2, "NORMAL" : 3}, "indices" : 0, "material" : 0, "mode" : 4}]}, {"primitives" : [{"attributes" : {"POSITION" : 5, "TEXCOORD_0" : 6, "NORMAL" : 7}, "indices" : 4, "material" : 1, "mode" : 4}]}, {"primitives" : [{"attributes" : {"POSITION" : 9, "TEXCOORD_0" : 10, "NORMAL" : 11}, "indices" : 8, "material" : 2, "mode" : 4}]}, {"primitives" : [{"attributes" : {"POSITION" : 13, "TEXCOORD_0" : 14, "NORMAL" : 15}, "indices" : 12, "material" : 3, "mode" : 4}]}, {"primitives" : [{"attributes" : {"POSITION" : 17, "NORMAL" : 18, "TEXCOORD_0" : 19}, "indices" : 16, "material" : 4, "mode" : 4}]}, {"primitives" : [{"attributes" : {"POSITION" : 21, "NORMAL" : 22, "TEXCOORD_0" : 23}, "indices" : 20, "material" : 5, "mode" : 4}]}, {"primitives" : [{"attributes" : {"POSITION" : 25, "NORMAL" : 26, "TEXCOORD_0" : 27}, "indices" : 24, "material" : 6, "mode" : 4}]}, {"primitives" : [{"attributes" : {"POSITION" : 29, "NORMAL" : 30, "TEXCOORD_0" : 31}, "indices" : 28, "material" : 7, "mode" : 4}]}, {"primitives" : [{"attributes" : {"POSITION" : 33, "NORMAL" : 34, "TEXCOORD_0" : 35}, "indices" : 32, "material" : 8, "mode" : 4}]}], "nodes" : [{"mesh" : 0, "name" : "EyeLeft"}, {"mesh" : 1, "name" : "EyeRight"}, {"mesh" : 2, "name" : "Wolf3D_Head"}, {"mesh" : 3, "name" : "Wolf3D_Teeth"}, {"mesh" : 4, "name" : "Wolf3D_Body"}, {"mesh" : 5, "name" : "Wolf3D_Outfit_Bottom"}, {"mesh" : 6, "name" : "Wolf3D_Outfit_Footwear"}, {"mesh" : 7, "name" : "Wolf3D_Outfit_Top"}, {"mesh" : 8, "name" : "Wolf3D_Hair"}, {"children" : [0, 1, 2, 3, 4, 5, 6, 7, 8], "name" : "Armature"}], "samplers" : [{"magFilter" : 9728, "minFilter" : 9728, "wrapS" : 10497, "wrapT" : 10497}, {"magFilter" : 9728, "minFilter" : 9728, "wrapS" : 10497, "wrapT" : 10497}, {"magFilter" : 9729, "minFilter" : 9987, "wrapS" : 10497, "wrapT" : 10497}, {"magFilter" : 9729, "minFilter" : 9987, "wrapS" : 10497, "wrapT" : 10497}, {"magFilter" : 9728, "minFilter" : 9728, "wrapS" : 10497, "wrapT" : 10497}, {"magFilter" : 9729, "minFilter" : 9987, "wrapS" : 10497, "wrapT" : 10497}, {"magFilter" : 9729, "minFilter" : 9987, "wrapS" : 10497, "wrapT" : 10497}, {"magFilter" : 9729, "minFilter" : 9987, "wrapS" : 10497, "wrapT" : 10497}, {"magFilter" : 9729, "minFilter" : 9987, "wrapS" : 10497, "wrapT" : 10497}, {"magFilter" : 9729, "minFilter" : 9987, "wrapS" : 10497, "wrapT" : 10497}, {"magFilter" : 9729, "minFilter" : 9987, "wrapS" : 10497, "wrapT" : 10497}, {"magFilter" : 9729, "minFilter" : 9987, "wrapS" : 10497, "wrapT" : 10497}, {"magFilter" : 9729, "minFilter" : 9987, "wrapS" : 10497, "wrapT" : 10497}, {"magFilter" : 9729, "minFilter" : 9987, "wrapS" : 10497, "wrapT" : 10497}, {"magFilter" : 9728, "minFilter" : 9728, "wrapS" : 10497, "wrapT" : 10497}], "scene" : 0, "scenes" : [{"nodes" : [9]}], "textures" : [{"sampler" : 0, "source" : 0, "name" : ""}, {"sampler" : 1, "source" : 1, "name" : ""}, {"sampler" : 2, "source" : 2, "name" : ""}, {"sampler" : 3, "source" : 3, "name" : ""}, {"sampler" : 4, "source" : 4, "name" : ""}, {"sampler" : 5, "source" : 5, "name" : ""}, {"sampler" : 6, "source" : 6, "name" : ""}, {"sampler" : 7, "source" : 7, "name" : ""}, {"sampler" : 8, "source" : 8, "name" : ""}, {"sampler" : 9, "source" : 9, "name" : ""}, {"sampler" : 10, "source" : 10, "name" : ""}, {"sampler" : 11, "source" : 11, "name" : ""}, {"sampler" : 12, "source" : 12, "name" : ""}, {"sampler" : 13, "source" : 13, "name" : ""}, {"sampler" : 14, "source" : 14, "name" : ""}]}